<svg xmlns="http://www.w3.org/2000/svg" xmlns:xlink="http://www.w3.org/1999/xlink" width="500" zoomAndPan="magnify" viewBox="0 0 375 374.999991" height="500" preserveAspectRatio="xMidYMid meet" version="1.0"><defs><g/></defs><g fill="#000000" fill-opacity="1"><g transform="translate(61.399625, 334.473912)"><g><path d="M 62.40625 -236 L 62.40625 -147.203125 L 209.59375 -147.203125 L 209.59375 -118 L 62.40625 -118 L 62.40625 -28.796875 L 227.203125 -28.796875 L 227.203125 0 L 32.40625 0 L 32.40625 -264.796875 L 227.203125 -264.796875 L 227.203125 -236 Z M 131.203125 -328 L 174 -328 L 131.203125 -286 L 106.8125 -286 Z M 131.203125 -328 "/></g></g></g><g fill="#ffffff" fill-opacity="1"><g transform="translate(61.898438, 308.99998)"><g><path d="M 263.902344 -259.167969 L 152.910156 15 L 98.289062 15 L -21.054688 -279.796875 L 44.183594 -279.796875 L 139.542969 -39.53125 L 125.597656 -34 L 111.65625 -39.53125 L 207.015625 -279.796875 L 272.253906 -279.796875 Z M 236.09375 -270.425781 L 250 -264.796875 L 250 -249.796875 L 217.199219 -249.796875 L 217.199219 -264.796875 L 231.140625 -259.265625 L 125.597656 6.664062 L 20.058594 -259.265625 L 34 -264.796875 L 34 -249.796875 L 1.199219 -249.796875 L 1.199219 -264.796875 L 15.105469 -270.425781 L 122.304688 -5.628906 L 108.398438 0 L 108.398438 -15 L 142.800781 -15 L 142.800781 0 L 128.894531 -5.628906 Z M 236.09375 -270.425781 "/></g></g></g><g fill="#000000" fill-opacity="1"><g transform="translate(61.898438, 308.99998)"><g><path d="M 250 -264.796875 L 142.796875 0 L 108.40625 0 L 1.203125 -264.796875 L 34 -264.796875 L 125.59375 -34 L 217.203125 -264.796875 Z M 250 -264.796875 "/></g></g></g></svg>